<svg width="181" height="17" viewBox="0 0 181 17" fill="none" xmlns="http://www.w3.org/2000/svg">
<path d="M170.67 5.34911C171.414 5.34911 172.016 4.74629 172.016 4.00268C172.016 3.25907 171.414 2.65625 170.67 2.65625C169.926 2.65625 169.323 3.25907 169.323 4.00268C169.323 4.74629 169.926 5.34911 170.67 5.34911Z" fill="white"/>
<path d="M173.288 6.36918V13.8392H175.607V10.1451C175.607 9.17035 175.79 8.22637 176.999 8.22637C178.191 8.22637 178.206 9.3408 178.206 10.2066V13.8398H180.526V9.74326C180.526 7.731 180.093 6.18457 177.741 6.18457C176.612 6.18457 175.855 6.80425 175.545 7.3907H175.514V6.36918H173.288ZM169.508 6.36918H171.831V13.8392H169.508V6.36918Z" fill="white"/>
<path d="M118.585 5.896C117.825 5.896 117.096 6.19781 116.559 6.73503C116.022 7.27226 115.72 8.00089 115.72 8.76064C115.72 9.52039 116.022 10.249 116.559 10.7862C117.096 11.3235 117.825 11.6253 118.585 11.6253C119.344 11.6253 120.073 11.3235 120.61 10.7862C121.148 10.249 121.449 9.52039 121.449 8.76064C121.449 8.00089 121.148 7.27226 120.61 6.73503C120.073 6.19781 119.344 5.896 118.585 5.896ZM118.585 10.621C118.091 10.621 117.618 10.425 117.269 10.076C116.92 9.72695 116.724 9.2536 116.724 8.76002C116.724 8.26645 116.92 7.79309 117.269 7.44408C117.618 7.09507 118.091 6.89899 118.585 6.89899C119.078 6.89899 119.552 7.09507 119.901 7.44408C120.25 7.79309 120.446 8.26645 120.446 8.76002C120.446 9.2536 120.25 9.72695 119.901 10.076C119.552 10.425 119.078 10.621 118.585 10.621Z" fill="white"/>
<path d="M121.563 6.45824C121.932 6.45824 122.231 6.15923 122.231 5.7904C122.231 5.42156 121.932 5.12256 121.563 5.12256C121.194 5.12256 120.895 5.42156 120.895 5.7904C120.895 6.15923 121.194 6.45824 121.563 6.45824Z" fill="white"/>
<path d="M123.872 5.11172C123.728 4.74136 123.509 4.40502 123.228 4.12425C122.947 3.84347 122.611 3.62443 122.241 3.48115C121.807 3.31844 121.349 3.23046 120.886 3.22095C120.29 3.19493 120.101 3.1875 118.588 3.1875C117.075 3.1875 116.881 3.1875 116.289 3.22095C115.827 3.22997 115.369 3.31797 114.936 3.48115C114.566 3.62426 114.229 3.84324 113.949 4.12404C113.668 4.40484 113.449 4.74126 113.305 5.11172C113.143 5.54514 113.055 6.0031 113.046 6.46598C113.019 7.06196 113.011 7.25091 113.011 8.76439C113.011 10.2772 113.011 10.4699 113.046 11.0628C113.055 11.5262 113.142 11.9834 113.305 12.4177C113.449 12.788 113.668 13.1243 113.949 13.405C114.23 13.6858 114.567 13.9049 114.937 14.0482C115.369 14.2175 115.827 14.3118 116.291 14.327C116.887 14.353 117.076 14.3611 118.589 14.3611C120.102 14.3611 120.296 14.3611 120.888 14.327C121.35 14.3176 121.808 14.2298 122.242 14.0674C122.612 13.9238 122.948 13.7046 123.229 13.4238C123.51 13.1429 123.729 12.8066 123.873 12.4363C124.036 12.0026 124.123 11.5454 124.133 11.082C124.159 10.486 124.167 10.2971 124.167 8.78359C124.167 7.27011 124.167 7.07806 124.133 6.48519C124.125 6.01576 124.037 5.55111 123.872 5.11172ZM123.117 11.0169C123.113 11.374 123.048 11.7277 122.924 12.0627C122.831 12.3036 122.689 12.5224 122.506 12.7049C122.324 12.8875 122.105 13.0298 121.864 13.1227C121.533 13.2456 121.183 13.3108 120.829 13.3154C120.241 13.3426 120.075 13.3494 118.566 13.3494C117.055 13.3494 116.901 13.3494 116.301 13.3154C115.948 13.311 115.598 13.2459 115.267 13.1227C115.025 13.0304 114.806 12.8883 114.622 12.7057C114.439 12.5231 114.296 12.3041 114.202 12.0627C114.081 11.7313 114.015 11.3817 114.01 11.0287C113.983 10.4402 113.977 10.2741 113.977 8.76501C113.977 7.25524 113.977 7.10098 114.01 6.50067C114.014 6.14385 114.079 5.79035 114.202 5.45555C114.391 4.96675 114.778 4.58203 115.267 4.39494C115.598 4.27236 115.948 4.2072 116.301 4.20227C116.89 4.17563 117.056 4.16819 118.566 4.16819C120.075 4.16819 120.23 4.16819 120.829 4.20227C121.183 4.20652 121.533 4.2717 121.864 4.39494C122.105 4.48803 122.324 4.63048 122.506 4.81313C122.689 4.99578 122.831 5.2146 122.924 5.45555C123.046 5.78696 123.111 6.1365 123.117 6.48952C123.144 7.07868 123.151 7.24409 123.151 8.75385C123.151 10.263 123.151 10.4253 123.124 11.0176H123.117V11.0169Z" fill="white"/>
<path d="M66.4903 5.83543C66.499 5.95192 66.499 6.06774 66.499 6.18356C66.499 9.72811 63.7599 13.8125 58.7541 13.8125C57.2119 13.8125 55.7792 13.3725 54.5735 12.6084C54.7925 12.633 55.0033 12.6416 55.2311 12.6416C56.4563 12.6445 57.6469 12.241 58.6108 11.4961C58.0428 11.4859 57.4921 11.3013 57.0357 10.968C56.5793 10.6347 56.2399 10.1694 56.065 9.63692C56.2333 9.66155 56.4023 9.67819 56.5793 9.67819C56.8233 9.67819 57.0686 9.64491 57.2964 9.587C56.6799 9.46439 56.1255 9.13525 55.7275 8.65555C55.3296 8.17585 55.1126 7.57519 55.1135 6.95571V6.92242C55.4764 7.12145 55.8974 7.24593 56.3435 7.26257C55.9698 7.018 55.6634 6.68614 55.4516 6.29658C55.2398 5.90702 55.1292 5.47189 55.1297 5.03C55.1297 4.5321 55.2642 4.07547 55.5 3.67741C56.1841 4.50615 57.0372 5.18414 58.0042 5.66746C58.9712 6.15078 60.0305 6.42866 61.1134 6.4831C61.0715 6.28341 61.0458 6.07639 61.0458 5.86871C61.0457 5.51656 61.1159 5.16783 61.2527 4.84245C61.3894 4.51707 61.5899 4.22143 61.8428 3.97242C62.0956 3.72341 62.3957 3.52592 62.7261 3.39124C63.0564 3.25656 63.4105 3.18733 63.768 3.1875C64.552 3.1875 65.2596 3.511 65.757 4.0342C66.3664 3.91812 66.9509 3.699 67.4844 3.38653C67.2812 4.00612 66.8557 4.5315 66.2875 4.86426C66.828 4.80354 67.3563 4.66353 67.8547 4.44889C67.4824 4.98347 67.0211 5.45225 66.4903 5.83543Z" fill="white"/>
<path d="M6.25301 17V9.25811H8.92775L9.32534 6.22692H6.25301V4.29617C6.25301 3.42148 6.50259 2.8226 7.78821 2.8226H9.41724V0.120123C8.62462 0.0371794 7.82791 -0.00286969 7.03077 0.000159793C4.66654 0.000159793 3.04332 1.40949 3.04332 3.99673V6.22125H0.385986V9.25245H3.04912V17H6.25301Z" fill="white"/>
</svg>
