<svg width="12" height="12" viewBox="0 0 12 12" fill="none" xmlns="http://www.w3.org/2000/svg">
<path d="M10.8717 2.11172C10.7283 1.74136 10.5091 1.40502 10.2283 1.12425C9.94737 0.843466 9.61095 0.624427 9.24054 0.481151C8.80709 0.318439 8.34917 0.230458 7.88628 0.220954C7.28968 0.194934 7.10073 0.1875 5.58787 0.1875C4.07501 0.1875 3.8811 0.1875 3.28947 0.220954C2.82693 0.229972 2.36933 0.317971 1.93644 0.481151C1.56593 0.62426 1.22943 0.84324 0.948522 1.12404C0.667614 1.40484 0.448506 1.74126 0.305257 2.11172C0.142513 2.54514 0.0547332 3.0031 0.0456792 3.46598C0.01904 4.06196 0.0109863 4.25091 0.0109863 5.76439C0.0109863 7.27725 0.0109863 7.46991 0.0456792 8.06279C0.054972 8.52619 0.142324 8.98339 0.305257 9.41767C0.448909 9.788 0.668229 10.1243 0.949204 10.405C1.23018 10.6858 1.56663 10.9049 1.93706 11.0482C2.36913 11.2175 2.82692 11.3118 3.29071 11.327C3.8873 11.353 4.07625 11.3611 5.58911 11.3611C7.10197 11.3611 7.29588 11.3611 7.88752 11.327C8.35036 11.3176 8.80826 11.2298 9.24178 11.0674C9.6121 10.9238 9.94842 10.7046 10.2293 10.4238C10.5101 10.1429 10.7294 9.80658 10.873 9.43626C11.0359 9.0026 11.1233 8.5454 11.1325 8.082C11.1592 7.48602 11.1672 7.29707 11.1672 5.78359C11.1672 4.27011 11.1672 4.07806 11.1325 3.48519C11.1253 3.01576 11.0371 2.55111 10.8717 2.11172ZM10.1172 8.01695C10.1132 8.37398 10.048 8.72768 9.92449 9.06269C9.83145 9.3036 9.68902 9.52237 9.50636 9.70493C9.32369 9.88749 9.10484 10.0298 8.86388 10.1227C8.53257 10.2456 8.18263 10.3108 7.82928 10.3154C7.24074 10.3426 7.07471 10.3494 5.56557 10.3494C4.05519 10.3494 3.90093 10.3494 3.30124 10.3154C2.94807 10.311 2.59829 10.2459 2.26726 10.1227C2.02546 10.0304 1.80573 9.88832 1.62228 9.70572C1.43883 9.52313 1.29576 9.30406 1.20232 9.06269C1.08055 8.73128 1.01542 8.38174 1.00965 8.02872C0.983007 7.44018 0.976812 7.27415 0.976812 5.76501C0.976812 4.25524 0.976812 4.10098 1.00965 3.50067C1.01365 3.14385 1.07882 2.79035 1.20232 2.45555C1.39127 1.96675 1.77847 1.58203 2.26726 1.39494C2.59845 1.27236 2.94813 1.2072 3.30124 1.20227C3.8904 1.17563 4.05581 1.16819 5.56557 1.16819C7.07533 1.16819 7.23021 1.16819 7.82928 1.20227C8.18266 1.20652 8.53266 1.2717 8.86388 1.39494C9.10482 1.48803 9.32364 1.63048 9.5063 1.81313C9.68895 1.99578 9.83139 2.2146 9.92449 2.45555C10.0463 2.78696 10.1114 3.1365 10.1172 3.48952C10.1438 4.07868 10.1506 4.24409 10.1506 5.75385C10.1506 7.263 10.1506 7.42531 10.124 8.01757H10.1172V8.01695Z" fill="white"/>
</svg>
