<svg width="34" height="30" viewBox="0 0 34 30" fill="none" xmlns="http://www.w3.org/2000/svg">
<path d="M33.66 0H0.34C0.153 0 0 0.153409 0 0.340909V3.06818C0 3.25568 0.153 3.40909 0.34 3.40909H33.66C33.847 3.40909 34 3.25568 34 3.06818V0.340909C34 0.153409 33.847 0 33.66 0ZM33.66 26.5909H0.34C0.153 26.5909 0 26.7443 0 26.9318V29.6591C0 29.8466 0.153 30 0.34 30H33.66C33.847 30 34 29.8466 34 29.6591V26.9318C34 26.7443 33.847 26.5909 33.66 26.5909ZM33.66 13.2955H0.34C0.153 13.2955 0 13.4489 0 13.6364V16.3636C0 16.5511 0.153 16.7045 0.34 16.7045H33.66C33.847 16.7045 34 16.5511 34 16.3636V13.6364C34 13.4489 33.847 13.2955 33.66 13.2955Z" fill="#E5E5E5"/>
</svg>
