<svg width="14" height="11" viewBox="0 0 14 11" fill="none" xmlns="http://www.w3.org/2000/svg">
<path d="M12.4903 2.83543C12.499 2.95192 12.499 3.06774 12.499 3.18356C12.499 6.72811 9.75993 10.8125 4.75412 10.8125C3.21189 10.8125 1.77915 10.3725 0.573486 9.60835C0.792453 9.63298 1.00331 9.64163 1.23106 9.64163C2.45632 9.64455 3.64688 9.24101 4.61085 8.49606C4.04276 8.48593 3.49207 8.30133 3.03567 7.96803C2.57926 7.63473 2.23992 7.16936 2.06502 6.63692C2.2333 6.66155 2.40226 6.67819 2.57933 6.67819C2.8233 6.67819 3.06862 6.64491 3.29637 6.587C2.67986 6.46439 2.12549 6.13525 1.72753 5.65555C1.32957 5.17585 1.11258 4.57519 1.11347 3.95571V3.92242C1.47638 4.12145 1.89742 4.24593 2.34346 4.26257C1.96979 4.018 1.6634 3.68614 1.45161 3.29658C1.23982 2.90702 1.12922 2.47189 1.12969 2.03C1.12969 1.5321 1.26418 1.07547 1.50004 0.677414C2.18406 1.50615 3.0372 2.18414 4.00418 2.66746C4.97117 3.15078 6.03045 3.42866 7.11341 3.4831C7.07151 3.28341 7.04583 3.07639 7.04583 2.86871C7.04565 2.51656 7.11594 2.16783 7.25269 1.84245C7.38943 1.51707 7.58994 1.22143 7.84275 0.972419C8.09557 0.72341 8.39573 0.525921 8.72609 0.391239C9.05644 0.256558 9.41051 0.187325 9.76804 0.1875C10.552 0.1875 11.2596 0.511003 11.757 1.0342C12.3664 0.918122 12.9509 0.698995 13.4844 0.386528C13.2812 1.00612 12.8557 1.5315 12.2875 1.86426C12.828 1.80354 13.3563 1.66353 13.8547 1.44889C13.4824 1.98347 13.0211 2.45225 12.4903 2.83543Z" fill="white"/>
</svg>
