<svg width="154" height="176" viewBox="0 0 154 176" fill="none" xmlns="http://www.w3.org/2000/svg">
<path d="M57.5518 8.13613C57.1943 8.49365 57.0226 9.00333 57.0234 9.71918L57.0291 14.7841L54.9187 14.7784L54.8138 17.6282L57.1369 17.6308L57.0355 20.4839L54.925 20.4782L54.9284 23.4361L57.0388 23.4351L57.149 28.3955C57.1506 29.8475 57.8098 30.5066 59.2617 30.5083L59.2967 58.7876C53.6213 59.4127 48.3486 60.8588 44.2113 63.0963C36.524 67.2679 32.5233 73.804 32.5155 81.9721C32.5195 85.5851 33.6207 88.8988 35.7987 92.001C39.343 97.0159 38.9154 104.123 34.764 108.883C30.2316 114.071 27.9188 120.299 27.926 126.707C27.9449 143.618 44.8334 157.444 65.6301 157.457C77.4484 157.47 88.0325 153.011 94.9537 146.09C100.222 140.822 103.274 134.099 103.266 126.792C103.258 120.376 100.932 114.15 96.3878 108.952C92.2292 104.186 91.6777 97.1791 95.2074 92.1687C97.3819 89.0748 98.5802 85.6589 98.5728 82.0426C98.5636 73.8913 94.5347 67.3328 86.8414 63.1473C84.277 61.7431 81.2201 60.7639 77.9742 59.9667L77.9819 69.8907C79.5256 70.3752 80.9545 70.907 82.208 71.5803C86.7591 74.0537 89.0692 77.4701 89.0743 82.0353C89.0659 83.6595 88.5408 85.0771 87.4991 86.5718C81.4678 95.1383 82.1938 107.244 89.2195 115.275C92.2184 118.692 93.7525 122.709 93.7705 126.781C93.7667 138.427 81.2668 147.871 65.7241 147.85C50.1882 147.836 37.4341 138.347 37.4211 126.718C37.4301 122.639 38.9552 118.633 41.9465 115.222C48.9542 107.207 49.6396 95.1162 43.6027 86.5227C42.561 85.0291 42.0192 83.617 42.0174 81.9827C42.0139 78.8424 43.051 76.2976 45.1726 74.1761C46.1338 73.2148 47.4396 72.308 48.8603 71.5431C51.6207 70.0537 55.2426 68.94 59.1994 68.3907L59.228 90.9703C57.7066 91.9216 56.4199 93.2041 55.4638 94.7225C54.5077 96.2409 53.9068 97.9561 53.7056 99.7405C53.5045 101.525 53.7084 103.333 54.3021 105.029C54.8958 106.726 55.8642 108.267 57.135 109.539C61.7932 114.198 69.3636 114.206 74.0148 109.555C78.666 104.904 78.6575 97.3333 73.996 92.6718C73.4821 92.1579 72.8874 91.7993 72.3028 91.4036L72.1294 29.8845C73.5814 29.8861 74.347 29.1204 74.3454 27.6685L74.3397 22.6035L76.4501 22.6093L76.4471 19.8674L74.3367 19.8617L74.3334 16.9105L76.5493 17.6491L76.4414 14.8025L74.331 14.7967L74.3253 9.73177C74.3237 8.27981 73.5597 7.51583 72.1078 7.51421L59.2326 7.50319C58.611 7.49017 58.0084 7.71541 57.5484 8.13275L57.5518 8.13613ZM61.3487 12.5671L64.3066 12.5705L64.2165 25.5535L61.4746 25.5505L61.3487 12.5671ZM66.7307 12.2558L69.6853 12.2624L69.5951 25.2388L66.7417 25.1309L66.7307 12.2558ZM54.726 123.361L54.7366 132.856L76.4687 132.88L76.4581 123.385L54.726 123.361Z" fill="white"/>
</svg>
