<svg width="50" height="50" viewBox="0 0 50 50" fill="none" xmlns="http://www.w3.org/2000/svg">
<path d="M25 50C38.8071 50 50 38.8071 50 25C50 11.1929 38.8071 0 25 0C11.1929 0 0 11.1929 0 25C0 38.8071 11.1929 50 25 50Z" fill="#F26798"/>
<path d="M24.9995 9.12326C16.2341 9.12326 9.10278 16.2461 9.10278 25.0004C9.10278 33.7548 16.2341 40.8772 24.9995 40.8772C33.7654 40.8772 40.8971 33.7552 40.8971 25.0004C40.8971 16.2461 33.7654 9.12326 24.9995 9.12326ZM35.4602 16.6169C37.2736 18.8643 38.3757 21.7026 38.4265 24.7954C37.8231 24.6715 35.2677 24.1951 32.2141 24.1951C31.2288 24.1951 30.1918 24.2446 29.1521 24.373C29.0643 24.1595 28.9765 23.9469 28.8842 23.7321C28.6146 23.098 28.3241 22.4687 28.0232 21.8488C32.7231 19.9124 34.9901 17.2252 35.4602 16.6169ZM24.9995 11.6087C28.3869 11.6087 31.4833 12.8672 33.8483 14.9399C33.474 15.4506 31.4436 17.9886 26.9118 19.7008C24.8141 15.8664 22.5181 12.6911 21.9718 11.954C22.9455 11.7285 23.9589 11.6087 24.9995 11.6087ZM19.2306 12.9099C19.6936 13.5477 21.9932 16.7568 24.1448 20.5604C18.3705 22.0783 13.2429 22.1772 12.0053 22.1772H11.8738C12.7629 18.0799 15.5313 14.6752 19.2306 12.9099ZM11.569 25.0214C11.569 24.9109 11.5708 24.8003 11.5744 24.6903C11.6546 24.6912 11.7731 24.6912 11.9269 24.6912C13.5936 24.6912 19.379 24.5534 25.3409 22.7842C25.7028 23.4919 26.0472 24.2103 26.3677 24.9282C26.217 24.9715 26.0686 25.0147 25.9211 25.0628C19.2083 27.2309 15.5188 32.9704 14.951 33.9085C12.8476 31.5386 11.569 28.427 11.569 25.0214ZM24.9995 38.4332C21.9192 38.4332 19.0764 37.39 16.808 35.6408C17.1918 34.8885 19.9766 29.8745 27.3329 27.3143C27.3374 27.3125 27.3423 27.3107 27.3476 27.3093C29.1922 32.1117 29.9734 36.1421 30.1878 37.3913C28.5914 38.0624 26.8383 38.4332 24.9995 38.4332ZM32.6067 36.069C32.4267 35.0356 31.703 31.2583 30.0327 26.6511C30.9694 26.5054 31.8808 26.4479 32.7355 26.4479C35.5427 26.4479 37.7384 27.0625 38.2487 27.2184C37.6421 30.8768 35.5476 34.0427 32.6067 36.069Z" fill="#F1F2F2"/>
</svg>
