<svg width="50" height="50" viewBox="0 0 50 50" fill="none" xmlns="http://www.w3.org/2000/svg">
<path d="M50 25C50 38.8073 38.8073 50 25 50C11.1927 50 0 38.8073 0 25C0 11.1927 11.1927 0 25 0C38.8073 0 50 11.1927 50 25Z" fill="#4A7AFF"/>
<path d="M33.5127 7.4082V13.0692C33.5127 13.0692 27.0132 12.1258 27.0132 16.3189V20.5121H32.8837L32.1501 26.9066H27.0132V43.5746H20.5137V26.9066L14.9576 26.8017V20.5121H20.4088V15.6899C20.4088 15.6899 20.0491 8.51637 27.1181 7.19878C30.0535 6.65137 33.5127 7.4082 33.5127 7.4082V7.4082Z" fill="white"/>
</svg>
