<svg width="1254" height="515" viewBox="0 0 1254 515" fill="none" xmlns="http://www.w3.org/2000/svg">
<rect x="1044.5" y="0.5" width="18" height="16" stroke="white"/>
<rect x="208.5" y="498.5" width="18" height="16" stroke="white"/>
<rect x="989.5" y="297.5" width="18" height="16" stroke="white"/>
<path d="M1149 419C1152.76 415.982 1161.86 411.756 1168.19 419C1174.51 426.244 1181 422.018 1183.46 419C1186.43 416.309 1194.16 412.54 1201.23 419C1208.31 425.46 1217.03 421.691 1220.5 419C1223.29 416.786 1230.56 413.687 1237.26 419C1243.96 424.313 1250.55 421.214 1253 419" stroke="white"/>
<path d="M1149 434C1152.76 430.982 1161.86 426.756 1168.19 434C1174.51 441.244 1181 437.018 1183.46 434C1186.43 431.309 1194.16 427.54 1201.23 434C1208.31 440.46 1217.03 436.691 1220.5 434C1223.29 431.786 1230.56 428.687 1237.26 434C1243.96 439.313 1250.55 436.214 1253 434" stroke="white"/>
<path d="M1149 448C1152.76 444.982 1161.86 440.756 1168.19 448C1174.51 455.244 1181 451.018 1183.46 448C1186.43 445.309 1194.16 441.54 1201.23 448C1208.31 454.46 1217.03 450.691 1220.5 448C1223.29 445.786 1230.56 442.687 1237.26 448C1243.96 453.313 1250.55 450.214 1253 448" stroke="white"/>
<path d="M73 42C76.759 38.9815 85.859 34.7556 92.1867 42C98.5145 49.2444 105.004 45.0185 107.458 42C110.434 39.3085 118.155 35.5404 125.235 42C132.314 48.4596 141.028 44.6915 144.5 42C147.293 39.7864 154.555 36.6874 161.259 42C167.963 47.3126 174.546 44.2136 177 42" stroke="white"/>
<path d="M73 57C76.759 53.9815 85.859 49.7556 92.1867 57C98.5145 64.2444 105.004 60.0185 107.458 57C110.434 54.3085 118.155 50.5404 125.235 57C132.314 63.4596 141.028 59.6915 144.5 57C147.293 54.7864 154.555 51.6874 161.259 57C167.963 62.3126 174.546 59.2136 177 57" stroke="white"/>
<path d="M73 71C76.759 67.9815 85.859 63.7556 92.1867 71C98.5145 78.2444 105.004 74.0185 107.458 71C110.434 68.3085 118.155 64.5404 125.235 71C132.314 77.4596 141.028 73.6915 144.5 71C147.293 68.7864 154.555 65.6874 161.259 71C167.963 76.3126 174.546 73.2136 177 71" stroke="white"/>
<circle r="7.5" transform="matrix(-1 0 0 1 656 189)" stroke="white"/>
<circle cx="871" cy="452" r="7.5" stroke="white"/>
<circle cx="8" cy="322" r="7.5" stroke="white"/>
</svg>
