<svg width="162" height="51" viewBox="0 0 162 51" fill="none" xmlns="http://www.w3.org/2000/svg">
<path d="M23.3766 1.01255C9.58371 1.94277 -0.874991 13.8865 0.0578584 27.6393C0.989482 41.3933 12.967 51.8274 26.7599 50.8972C40.5528 49.967 51.0152 38.0196 50.0823 24.2656C49.1495 10.5128 37.1696 0.0823353 23.3766 1.01255ZM23.6248 4.67133C35.4345 3.87486 45.6148 12.737 46.414 24.514C47.1301 35.0716 40.0579 44.3248 30.0763 46.6999C30.1195 46.5358 30.1535 46.3624 30.1833 46.1834C30.4472 45.2773 30.6072 43.9257 30.51 43.8106C30.2442 43.4957 31.5816 40.2067 32.2178 39.6103C33.0607 38.8201 33.4575 37.0466 33.22 35.1397C33.0437 33.724 33.1354 32.9878 33.7442 30.9236C34.2155 29.3253 34.6989 28.1861 35.0847 27.7626C35.4167 27.3983 36.0443 26.3854 36.4757 25.5134C37.3026 23.8417 38.9188 22.0317 39.9229 21.6552C40.9291 21.278 41.8492 19.7417 41.7542 18.5952C41.6421 17.2441 41.2583 16.6818 40.6419 16.9703C40.2841 17.1377 40.0413 17.0748 39.7037 16.7234C39.3048 16.3083 39.234 16.3277 39.131 16.8846C39.0663 17.2344 38.8328 17.5388 38.6121 17.5551C38.3003 17.5782 38.3196 17.3332 38.7035 16.4693C38.9753 15.8577 39.1892 14.8976 39.1808 14.3352C39.1658 13.3393 38.2915 11.0453 37.8782 10.9237C37.7647 10.8903 36.9117 11.5393 35.9869 12.3606C33.4969 14.5719 29.5832 17.3705 28.9049 17.4248C28.5785 17.451 27.9612 17.4004 27.5344 17.3143C26.7493 17.1561 25.5662 17.6895 22.7691 19.4581C21.5607 20.2222 20.8358 20.4318 19.1238 20.508C17.8079 20.5665 16.5957 20.8315 15.9685 21.1993C15.0361 21.7463 14.9681 21.8581 15.1417 22.5377C15.246 22.9459 15.8981 23.841 16.5896 24.5266L17.8452 25.7743L17.0789 26.986C16.656 27.6533 16.1873 28.5972 16.0423 29.0813C15.8973 29.5653 15.3337 30.4401 14.7882 31.0265C13.7362 32.1576 11.7456 35.4432 11.1071 37.0981C10.949 37.5081 9.33203 38.5743 8.21445 39.1119C5.66131 35.8607 4.0273 31.8337 3.72611 27.3927C2.92739 15.6163 11.8147 5.46831 23.6248 4.67133Z" fill="black"/>
<path d="M76.44 26.176C77.0587 26.3787 77.5493 26.72 77.912 27.2C78.2747 27.6693 78.456 28.256 78.456 28.96C78.456 29.9307 78.0827 30.6827 77.336 31.216C76.5893 31.7387 75.5013 32 74.072 32H68.504V20.8H73.752C75.0747 20.8 76.0933 21.0613 76.808 21.584C77.5227 22.096 77.88 22.8053 77.88 23.712C77.88 24.2667 77.752 24.7573 77.496 25.184C77.24 25.6107 76.888 25.9413 76.44 26.176ZM70.584 22.432V25.52H73.528C74.2533 25.52 74.808 25.392 75.192 25.136C75.5867 24.8693 75.784 24.4853 75.784 23.984C75.784 23.472 75.5867 23.088 75.192 22.832C74.808 22.5653 74.2533 22.432 73.528 22.432H70.584ZM73.944 30.368C75.5547 30.368 76.36 29.8293 76.36 28.752C76.36 27.6747 75.5547 27.136 73.944 27.136H70.584V30.368H73.944ZM82.3879 24.704C82.9639 23.808 83.9772 23.36 85.4279 23.36V25.264C85.2572 25.232 85.1025 25.216 84.9639 25.216C84.1852 25.216 83.5772 25.4453 83.1399 25.904C82.7025 26.352 82.4839 27.0027 82.4839 27.856V32H80.4839V23.456H82.3879V24.704ZM95.437 23.456L91.437 32.688C91.0637 33.616 90.6103 34.2667 90.077 34.64C89.5437 35.024 88.8983 35.216 88.141 35.216C87.7143 35.216 87.293 35.1467 86.877 35.008C86.461 34.8693 86.1197 34.6773 85.853 34.432L86.653 32.96C86.845 33.1413 87.069 33.2853 87.325 33.392C87.5917 33.4987 87.8583 33.552 88.125 33.552C88.477 33.552 88.765 33.4613 88.989 33.28C89.2237 33.0987 89.437 32.7947 89.629 32.368L89.773 32.032L86.045 23.456H88.125L90.813 29.776L93.517 23.456H95.437ZM99.6854 23.36C100.944 23.36 101.904 23.664 102.565 24.272C103.237 24.8693 103.573 25.776 103.573 26.992V32H101.685V30.96C101.44 31.3333 101.088 31.6213 100.629 31.824C100.181 32.016 99.6374 32.112 98.9974 32.112C98.3574 32.112 97.7974 32.0053 97.3174 31.792C96.8374 31.568 96.464 31.264 96.1974 30.88C95.9414 30.4853 95.8134 30.0427 95.8134 29.552C95.8134 28.784 96.096 28.1707 96.6614 27.712C97.2374 27.2427 98.1387 27.008 99.3654 27.008H101.573V26.88C101.573 26.2827 101.392 25.824 101.029 25.504C100.677 25.184 100.149 25.024 99.4454 25.024C98.9654 25.024 98.4907 25.0987 98.0214 25.248C97.5627 25.3973 97.1734 25.6053 96.8534 25.872L96.0694 24.416C96.5174 24.0747 97.056 23.8133 97.6854 23.632C98.3147 23.4507 98.9814 23.36 99.6854 23.36ZM99.4134 30.656C99.9147 30.656 100.357 30.544 100.741 30.32C101.136 30.0853 101.413 29.7547 101.573 29.328V28.336H99.5094C98.3574 28.336 97.7814 28.7147 97.7814 29.472C97.7814 29.8347 97.9254 30.1227 98.2134 30.336C98.5014 30.5493 98.9014 30.656 99.4134 30.656ZM110.988 23.36C112.065 23.36 112.929 23.6747 113.58 24.304C114.231 24.9333 114.556 25.8667 114.556 27.104V32H112.556V27.36C112.556 26.6133 112.38 26.0533 112.028 25.68C111.676 25.296 111.175 25.104 110.524 25.104C109.788 25.104 109.207 25.328 108.78 25.776C108.353 26.2133 108.14 26.848 108.14 27.68V32H106.14V23.456H108.044V24.56C108.375 24.1653 108.791 23.8667 109.292 23.664C109.793 23.4613 110.359 23.36 110.988 23.36ZM127.573 32L127.557 24.576L123.877 30.72H122.949L119.269 24.672V32H117.285V20.8H118.997L123.445 28.224L127.813 20.8H129.525L129.541 32H127.573ZM132.375 23.456H134.375V32H132.375V23.456ZM133.383 22.048C133.02 22.048 132.716 21.936 132.471 21.712C132.225 21.4773 132.103 21.1893 132.103 20.848C132.103 20.5067 132.225 20.224 132.471 20C132.716 19.7653 133.02 19.648 133.383 19.648C133.745 19.648 134.049 19.76 134.295 19.984C134.54 20.1973 134.663 20.4693 134.663 20.8C134.663 21.152 134.54 21.4507 134.295 21.696C134.06 21.9307 133.756 22.048 133.383 22.048ZM137 20.128H139V32H137V20.128ZM141.625 20.128H143.625V32H141.625V20.128ZM154.282 27.776C154.282 27.9147 154.271 28.112 154.25 28.368H147.546C147.663 28.9973 147.967 29.4987 148.458 29.872C148.959 30.2347 149.578 30.416 150.314 30.416C151.252 30.416 152.026 30.1067 152.634 29.488L153.706 30.72C153.322 31.1787 152.836 31.5253 152.25 31.76C151.663 31.9947 151.002 32.112 150.266 32.112C149.327 32.112 148.5 31.9253 147.786 31.552C147.071 31.1787 146.516 30.6613 146.122 30C145.738 29.328 145.546 28.5707 145.546 27.728C145.546 26.896 145.732 26.1493 146.106 25.488C146.49 24.816 147.018 24.2933 147.69 23.92C148.362 23.5467 149.119 23.36 149.962 23.36C150.794 23.36 151.535 23.5467 152.186 23.92C152.847 24.2827 153.359 24.8 153.722 25.472C154.095 26.1333 154.282 26.9013 154.282 27.776ZM149.962 24.96C149.322 24.96 148.778 25.152 148.33 25.536C147.892 25.9093 147.626 26.4107 147.53 27.04H152.378C152.292 26.4213 152.031 25.92 151.594 25.536C151.156 25.152 150.612 24.96 149.962 24.96ZM158.107 24.704C158.683 23.808 159.696 23.36 161.147 23.36V25.264C160.976 25.232 160.821 25.216 160.683 25.216C159.904 25.216 159.296 25.4453 158.859 25.904C158.421 26.352 158.203 27.0027 158.203 27.856V32H156.203V23.456H158.107V24.704Z" fill="#3D85CC"/>
</svg>
