<svg width="51" height="51" viewBox="0 0 51 51" fill="none" xmlns="http://www.w3.org/2000/svg">
<path d="M23.3766 1.01255C9.58371 1.94277 -0.874991 13.8865 0.0578584 27.6393C0.989482 41.3933 12.967 51.8274 26.7599 50.8972C40.5528 49.967 51.0152 38.0196 50.0823 24.2656C49.1495 10.5128 37.1696 0.0823353 23.3766 1.01255ZM23.6248 4.67133C35.4345 3.87486 45.6148 12.737 46.414 24.514C47.1301 35.0716 40.0579 44.3248 30.0763 46.6999C30.1195 46.5358 30.1535 46.3624 30.1833 46.1834C30.4472 45.2773 30.6072 43.9257 30.51 43.8106C30.2442 43.4957 31.5816 40.2067 32.2178 39.6103C33.0607 38.8201 33.4575 37.0466 33.22 35.1397C33.0437 33.724 33.1354 32.9878 33.7442 30.9236C34.2155 29.3253 34.6989 28.1861 35.0847 27.7626C35.4167 27.3983 36.0443 26.3854 36.4757 25.5134C37.3026 23.8417 38.9188 22.0317 39.9229 21.6552C40.9291 21.278 41.8492 19.7417 41.7542 18.5952C41.6421 17.2441 41.2583 16.6818 40.6419 16.9703C40.2841 17.1377 40.0413 17.0748 39.7037 16.7234C39.3048 16.3083 39.234 16.3277 39.131 16.8846C39.0663 17.2344 38.8328 17.5388 38.6121 17.5551C38.3003 17.5782 38.3196 17.3332 38.7035 16.4693C38.9753 15.8577 39.1892 14.8976 39.1808 14.3352C39.1658 13.3393 38.2915 11.0453 37.8782 10.9237C37.7647 10.8903 36.9117 11.5393 35.9869 12.3606C33.4969 14.5719 29.5832 17.3705 28.9049 17.4248C28.5785 17.451 27.9612 17.4004 27.5344 17.3143C26.7493 17.1561 25.5662 17.6895 22.7691 19.4581C21.5607 20.2222 20.8358 20.4318 19.1238 20.508C17.8079 20.5665 16.5957 20.8315 15.9685 21.1993C15.0361 21.7463 14.9681 21.8581 15.1417 22.5377C15.246 22.9459 15.8981 23.841 16.5896 24.5266L17.8452 25.7743L17.0789 26.986C16.656 27.6533 16.1873 28.5972 16.0423 29.0813C15.8973 29.5653 15.3337 30.4401 14.7882 31.0265C13.7362 32.1576 11.7456 35.4432 11.1071 37.0981C10.949 37.5081 9.33203 38.5743 8.21445 39.1119C5.66131 35.8607 4.0273 31.8337 3.72611 27.3927C2.92739 15.6163 11.8147 5.46831 23.6248 4.67133Z" fill="black"/>
</svg>
