<svg width="53" height="40" viewBox="0 0 53 40" fill="none" xmlns="http://www.w3.org/2000/svg">
<path d="M48.3667 0H4.96174C2.41278 0 0.333252 2.07138 0.333252 4.61538V35.3846C0.333252 37.92 2.40353 40 4.96174 40H48.3667C50.9093 40 52.9952 37.9356 52.9952 35.3846V4.61538C52.9952 2.08 50.9249 0 48.3667 0ZM47.7276 3.07692L26.7624 23.9829L5.6158 3.07692H47.7276ZM3.41891 34.7475V5.23785L18.2794 19.9291L3.41891 34.7475ZM5.60078 36.9231L20.4706 22.0954L25.6809 27.2464C26.2841 27.8427 27.2574 27.8407 27.8581 27.2416L32.9384 22.1757L47.7277 36.9231H5.60078ZM49.9095 34.7474L35.1203 20L49.9095 5.25251V34.7474Z" fill="#E6E6E6"/>
</svg>
