<svg width="41" height="40" viewBox="0 0 41 40" fill="none" xmlns="http://www.w3.org/2000/svg">
<path d="M36.8949 26.2554C34.439 26.2554 32.0276 25.8724 29.7425 25.1194C28.6227 24.7385 27.2462 25.0879 26.5628 25.7878L22.0525 29.183C16.8217 26.3988 13.5997 23.1869 10.8456 18.0101L14.1503 13.6297C15.0089 12.7747 15.3168 11.5257 14.9479 10.3539C14.1895 8.06323 13.8042 5.65979 13.8042 3.20979C13.8043 1.4399 12.3603 0 10.5855 0H3.2188C1.44399 0 0 1.4399 0 3.20969C0 23.4961 16.5508 40 36.8949 40C38.6697 40 40.1137 38.5601 40.1137 36.7903V29.465C40.1136 27.6953 38.6696 26.2554 36.8949 26.2554Z" fill="#E6E6E6"/>
</svg>
