<svg width="50" height="40" viewBox="0 0 50 40" fill="none" xmlns="http://www.w3.org/2000/svg">
<path d="M49.7038 4.73538C47.8679 5.53846 45.9116 6.07077 43.8719 6.32923C45.9702 5.08 47.5717 3.11692 48.3246 0.750769C46.3682 1.91385 44.2083 2.73538 41.9064 3.19385C40.0488 1.22154 37.4013 0 34.5131 0C28.9096 0 24.3983 4.53538 24.3983 10.0954C24.3983 10.8954 24.4662 11.6646 24.6328 12.3969C16.2182 11.9877 8.77254 7.96615 3.77068 1.84C2.89744 3.35077 2.38522 5.08 2.38522 6.94154C2.38522 10.4369 4.19033 13.5354 6.88103 15.3292C5.25488 15.2985 3.6596 14.8277 2.30808 14.0862C2.30808 14.1169 2.30808 14.1569 2.30808 14.1969C2.30808 19.1015 5.81647 23.1754 10.4172 24.1138C9.59332 24.3385 8.6954 24.4462 7.76353 24.4462C7.11554 24.4462 6.46138 24.4092 5.84733 24.2738C7.15874 28.2708 10.88 31.2092 15.3049 31.3046C11.8613 33.9908 7.4889 35.6092 2.7555 35.6092C1.92545 35.6092 1.12935 35.5723 0.333252 35.4708C4.81672 38.3538 10.1302 40 15.8603 40C34.4854 40 44.668 24.6154 44.668 11.28C44.668 10.8338 44.6526 10.4031 44.631 9.97539C46.6398 8.55385 48.3276 6.77846 49.7038 4.73538Z" fill="#E6E6E6"/>
</svg>
