<svg width="12" height="10" viewBox="0 0 12 10" fill="none" xmlns="http://www.w3.org/2000/svg">
<path d="M0.428572 0H11.5714C11.8085 0 12 0.203125 12 0.454545V9.54545C12 9.79688 11.8085 10 11.5714 10H0.428572C0.191518 10 0 9.79688 0 9.54545V0.454545C0 0.203125 0.191518 0 0.428572 0ZM0.964286 1.57386V8.97727H11.0357V1.57386L11.4054 1.26847L10.879 0.551136L10.3058 1.02415H1.69286L1.11964 0.551136L0.593304 1.26847L0.964286 1.57386ZM1.69286 1.02273L6 4.57386L10.3071 1.02273L10.8804 0.549716L11.4067 1.26705L11.0371 1.57244L6.46205 5.34517C6.33048 5.45358 6.16862 5.51243 6.00201 5.51243C5.8354 5.51243 5.67353 5.45358 5.54196 5.34517L0.964286 1.57386L0.594643 1.26847L1.12098 0.551136L1.69286 1.02273Z" fill="white"/>
</svg>
